<?xml version="1.0" encoding="UTF-8"?>
<svg enable-background="new 0 0 512 512" version="1.1" viewBox="0 0 512 512" xml:space="preserve" xmlns="http://www.w3.org/2000/svg">
<path class="st0" d="m60.5 311.2l97.7-38-0.7-0.9-2.6-3.4 2-3.8 11.8-22.9 3.9-7.6 22.3 0.2-3.9 15.6 51.8 44.9 5.8 5.1 8.9 20.1 1.7-20.1 5.8-5.1 51.8-44.9-3.9-15.6 22.3-0.2 3.9 7.6 11.8 22.9 2 3.8-2.6 3.4-1.2 1.5 98.8 37.4 4.9 1.9 2.5 4.7c11.8 22.6 17.8 49.6 20.7 79 2.8 28.4 2.6 59 2 90l-0.3 13.7h-442.8l-0.5-13.5c-1.4-39.7-0.8-73.7 2-101.6 3-29 8.4-51.7 16.7-67.7l2.4-4.7 5-1.8zm115.1-135.1c-3.3-33.9-4-48.5 6.3-82.5 34.4 21.4 92.3 14.6 146.5 12.2 5.7 28.2 5.6 32.1 3.9 71.9 0 0 15.3-41.1 18.4-57.6s4.4-58.7-3.5-70.4c-20-49.4-147.7-49.5-183.3-8-9.4 11-17.8 74.8-7.6 88.1 3.7 19 19.3 46.3 19.3 46.3zm0.3 120.1l-100.1 39c-5.4 12.7-9.2 30.5-11.6 53.1-2.4 23.4-3.1 51.7-2.3 84.2h192.9v-124.7l-16.8-38.2-25.7 22.4-5.4 4.7-4.4-5.7-26.6-34.8zm92.3 176.3h182.1c0.4-25.4 0.1-50.2-2.1-73.2-2.3-24-6.9-45.9-15.4-64.1l-101.6-38.4-26.2 34.2-4.4 5.7-5.4-4.7-23.8-20.9-3.3 34.2v127.2h0.1zm-32.1-42.8c-5.2 0-9.5 4.3-9.5 9.5s4.3 9.5 9.5 9.5c5.3 0 9.5-4.3 9.5-9.5s-4.3-9.5-9.5-9.5zm0-39.5c-5.2 0-9.5 4.3-9.5 9.5s4.3 9.5 9.5 9.5c5.3 0 9.5-4.3 9.5-9.5s-4.3-9.5-9.5-9.5zm0-37c-5.2 0-9.5 4.3-9.5 9.5s4.3 9.5 9.5 9.5c5.3 0 9.5-4.3 9.5-9.5s-4.3-9.5-9.5-9.5zm94.9-97.3l-51.4 44.5 19.2 16.8 38.1-49.8-5.9-11.5zm-102.9 44.5l-51.4-44.5-5.9 11.5 38.1 49.8 19.2-16.8z"/>
</svg>
