<svg xmlns="http://www.w3.org/2000/svg" viewBox="0 0 512 512"><polygon class="st0" points="141.7 206.8 92.7 272.8 414.1 272.8 372.4 206.8"/><polygon class="st0" points="502.3 248.7 443.4 206.8 426.3 7.1 415.8 7.1 415.8 206.8 468 272.8"/><polygon class="st0" points="94.4 206.8 94.4 7.1 84 7.1 66.8 206.8 7.9 248.7 42.3 272.8"/><path class="st0" d="m481.5 493.9l-212.5-112.8 147.4-78.2c3.7-2 3.9-5.8 0.5-8.5-3.4-2.8-9.2-3.4-12.8-1.5l-150.7 80-150.7-80c-3.7-2-9.4-1.3-12.8 1.5s-3.2 6.6 0.5 8.5l147.4 78.2-212.5 112.8c-3.7 2-3.9 5.8-0.5 8.6s9.2 3.4 12.8 1.5l215.8-114.5 215.8 114.5c3.7 2 9.4 1.3 12.8-1.5 3.4-2.9 3.2-6.7-0.5-8.6z"/><path class="st0" d="m317.9 94.5c-5.3 0-8.3 5-8.3 11.7 0 6.8 3.2 11.5 8.4 11.5 5.3 0 8.3-5 8.3-11.7 0-6.2-3-11.5-8.4-11.5z"/><path class="st0" d="m351 94.4c-1.9 0-3 0.2-3.5 0.3v9.5h3.1c3.9 0 6.2-1.9 6.2-5-0.1-3.2-2.3-4.7-5.8-4.8z"/><path class="st0" d="m198.7 94.4c-1.9 0-3 0.2-3.5 0.3v9.5h3.1c3.9 0 6.2-1.9 6.2-5-0.1-3.2-2.3-4.7-5.8-4.8z"/><path class="st0" d="m148.5 94.6c-1.7 0-2.9 0.2-3.5 0.3v22.6c0.7 0.2 1.7 0.2 2.7 0.2 7.1 0.1 11.7-3.8 11.7-12.1 0-7.2-4.2-11-10.9-11z"/><path class="st0" d="m386.4 16.8h-269.9v178.7h269.9v-178.7zm-224.5 102.5c-3.6 3-9.2 4.5-15.9 4.5-4 0-6.9-0.3-8.9-0.5v-34c2.9-0.5 6.6-0.7 10.6-0.7 6.6 0 10.8 1.2 14.1 3.7 3.6 2.7 5.8 6.9 5.8 13 0 6.6-2.4 11.2-5.7 14zm18.7 4.1h-7.8v-34.5h7.8v34.5zm24.9 0c-0.6-1-1.4-3.8-2.4-8-0.9-4.3-2.4-5.5-5.6-5.5h-2.4v13.6h-7.7v-34.2c2.5-0.4 6.2-0.7 10.4-0.7 5.1 0 8.7 0.8 11.2 2.7 2 1.6 3.2 4 3.2 7.2 0 4.4-3.1 7.4-6.1 8.5v0.2c2.4 1 3.7 3.3 4.6 6.5 1.1 3.9 2.1 8.4 2.8 9.7h-8zm34.3 0h-22v-34.5h21.3v6.4h-13.5v7.2h12.7v6.4h-12.7v8.2h14.2v6.3zm23-5.9c2.4 0 5-0.5 6.5-1.1l1.2 6.1c-1.4 0.7-4.7 1.5-8.9 1.5-11.9 0-18.1-7.4-18.1-17.3 0-11.8 8.4-18.3 18.8-18.3 4 0 7.1 0.8 8.5 1.5l-1.6 6.2c-1.6-0.7-3.8-1.3-6.6-1.3-6.2 0-11 3.7-11 11.4 0.1 6.9 4.2 11.3 11.2 11.3zm37.5-22.1h-9.4v28h-7.9v-28h-9.3v-6.6h26.5v6.6zm17.3 28.6c-10.2 0-16.2-7.7-16.2-17.6 0-10.3 6.6-18.1 16.8-18.1 10.6 0 16.4 7.9 16.4 17.5-0.1 11.3-6.9 18.2-17 18.2zm40.2-0.6c-0.6-1-1.4-3.8-2.4-8-0.9-4.3-2.4-5.5-5.6-5.5h-2.4v13.6h-7.7v-34.2c2.5-0.4 6.2-0.7 10.4-0.7 5.1 0 8.7 0.8 11.2 2.7 2 1.6 3.2 4 3.2 7.2 0 4.4-3.1 7.4-6.1 8.5v0.2c2.4 1 3.7 3.3 4.6 6.5 1.1 3.9 2.2 8.4 2.8 9.7h-8z"/></svg>
