<svg xmlns="http://www.w3.org/2000/svg" viewBox="0 0 100 100"><path d="M88.9 58.8c-2.4-2.3-3.7-5.5-3.7-8.8 0-3.3 1.3-6.4 3.7-8.8 0.4-0.4 0.8-0.7 1.3-1.1 0.7-0.5 0.9-1.4 0.7-2.2 -0.8-2.9-2-5.7-3.4-8.3 -0.4-0.7-1.2-1.1-2-1 -0.7 0.1-1.2 0.1-1.7 0.1 -6.9 0-12.5-5.6-12.5-12.4 0-0.5 0-1.1 0.1-1.7 0.1-0.8-0.3-1.6-1-2 -2.6-1.4-5.4-2.6-8.3-3.4 -0.8-0.2-1.7 0.1-2.2 0.7 -0.4 0.5-0.8 1-1.1 1.3 -2.4 2.3-5.5 3.6-8.8 3.6s-6.5-1.3-8.8-3.6c-0.4-0.4-0.7-0.8-1.1-1.3 -0.5-0.7-1.4-0.9-2.2-0.7 -2.9 0.9-5.7 2-8.3 3.4 -0.7 0.4-1.1 1.2-1 2 0.1 0.7 0.1 1.2 0.1 1.7 0 6.9-5.6 12.4-12.5 12.4 -0.5 0-1.1 0-1.7-0.1 -0.8-0.1-1.6 0.3-2 1 -1.4 2.6-2.6 5.4-3.4 8.3 -0.2 0.8 0 1.7 0.7 2.2 0.6 0.4 1 0.8 1.3 1.1 4.9 4.8 4.9 12.7 0 17.6 -0.4 0.4-0.8 0.7-1.3 1.1 -0.7 0.5-0.9 1.4-0.7 2.2 0.9 2.9 2 5.7 3.4 8.3 0.4 0.7 1.2 1.1 2 1 0.7-0.1 1.2-0.1 1.7-0.1 6.9 0 12.5 5.6 12.5 12.4 0 0.5 0 1.1-0.1 1.7 -0.1 0.8 0.3 1.6 1 2 2.6 1.4 5.4 2.6 8.3 3.4 0.8 0.2 1.7 0 2.2-0.7 0.4-0.5 0.8-1 1.1-1.3 2.4-2.3 5.5-3.6 8.8-3.6s6.5 1.3 8.8 3.6c0.4 0.4 0.7 0.8 1.1 1.3 0.4 0.5 1 0.8 1.6 0.8 0.2 0 0.4 0 0.6-0.1 2.9-0.9 5.7-2 8.3-3.4 0.7-0.4 1.1-1.2 1-2 -0.1-0.7-0.1-1.2-0.1-1.7 0-6.9 5.6-12.4 12.5-12.4 0.5 0 1.1 0 1.7 0.1 0.8 0.1 1.6-0.3 2-1 1.4-2.6 2.6-5.4 3.4-8.3 0.2-0.8 0-1.7-0.7-2.2C89.7 59.5 89.2 59.2 88.9 58.8zM84.6 67.3c-0.3 0-0.6 0-0.9 0 -9.1 0-16.5 7.4-16.5 16.4 0 0.3 0 0.6 0 0.9 -1.6 0.8-3.3 1.5-5.1 2.1 -0.2-0.2-0.4-0.4-0.6-0.6 -3.1-3.1-7.2-4.8-11.6-4.8s-8.5 1.7-11.6 4.8c-0.2 0.2-0.4 0.4-0.6 0.6 -1.7-0.6-3.4-1.3-5.1-2.1 0-0.3 0-0.6 0-0.9 0-9.1-7.4-16.4-16.5-16.4 -0.3 0-0.6 0-0.9 0 -0.8-1.6-1.5-3.3-2.1-5.1 0.2-0.2 0.4-0.4 0.6-0.6 6.4-6.4 6.4-16.8 0-23.3 -0.2-0.2-0.4-0.4-0.6-0.6 0.6-1.7 1.3-3.4 2.1-5.1 0.3 0 0.6 0 0.9 0 9.1 0 16.5-7.4 16.5-16.4 0-0.3 0-0.6 0-0.9 1.6-0.8 3.3-1.5 5.1-2.1 0.2 0.2 0.4 0.4 0.6 0.6 3.1 3.1 7.2 4.8 11.6 4.8s8.5-1.7 11.6-4.8c0.2-0.2 0.4-0.4 0.6-0.6 1.7 0.6 3.4 1.3 5.1 2.1 0 0.3 0 0.6 0 0.9 0 9.1 7.4 16.4 16.5 16.4 0.3 0 0.6 0 0.9 0 0.8 1.6 1.5 3.3 2.1 5.1 -0.2 0.2-0.4 0.4-0.6 0.6 -3.1 3.1-4.8 7.2-4.8 11.6s1.7 8.5 4.8 11.6c0.2 0.2 0.4 0.4 0.6 0.6C86.1 64 85.4 65.7 84.6 67.3zM50 26.2c-13.1 0-23.8 10.7-23.8 23.8S36.9 73.8 50 73.8 73.8 63.1 73.8 50 63.1 26.2 50 26.2zM50 69.8c-10.9 0-19.8-8.9-19.8-19.8 0-10.9 8.9-19.8 19.8-19.8S69.8 39.1 69.8 50C69.8 60.9 60.9 69.8 50 69.8z"/></svg>
