<svg xmlns="http://www.w3.org/2000/svg" class="icon icon-heart" viewBox="0 0 100 90"><path d="M28.2 11c-6.2 0-12.4 2.3-17.1 7-9.5 9.3-9.4 24.5 0 33.8l36.8 36.3a3 3 0 0 0 4.2 0C64.4 76 76.6 64 88.9 51.9c9.5-9.3 9.5-24.5 0-33.8-9.5-9.3-24.7-9.3-34.2 0L50 22.6l-4.7-4.6c-4.7-4.7-10.9-7-17.1-7zm0 6c4.7 0 9.3 1.8 12.9 5.3l6.8 6.7a3 3 0 0 0 4.2 0l6.8-6.7c7.2-7.1 18.6-7.1 25.8 0 7.2 7.1 7.2 18.2 0 25.3-11.6 11.4-23.1 22.8-34.7 34.2L15.3 47.6c-7.2-7.1-7.2-18.2 0-25.3 3.6-3.5 8.2-5.3 12.9-5.3z" style="block-progression:tb;text-indent:0;text-transform:none"/></svg>
