<svg xmlns="http://www.w3.org/2000/svg" viewBox="0 0 100 100" style="enable-background:new 0 0 100 100;version:1"><style>.a{display:none;}</style><g class="a"><path d="M75.3 56.4c3.1-2 6.1-4.1 9.2-6.1 -1.6-3.9-2.9-7.9-4.5-11.8 -3 2.3-5.9 4.5-8.9 6.8C72.5 49 73.8 52.8 75.3 56.4z"/><path d="M66.1 62.5c1.4 3.4 3 6.7 5.1 9.6 3.2-1.8 6.4-3.6 9.6-5.4 -2.3-3.1-4-6.6-5.5-10.2C72.2 58.5 69.2 60.5 66.1 62.5z"/><path d="M90.3 61.2c-3.2 1.8-6.4 3.6-9.6 5.4 2.3 3.1 5.2 5.7 9.1 7.6 3.4-1.6 6.8-3.3 10.1-4.9C95.8 67.3 92.8 64.5 90.3 61.2z"/><path d="M71.2 72.1c-3.2 1.8-6.4 3.6-9.6 5.4 -2-2.7-3.5-5.7-4.8-8.9 3.1-2 6.1-4.1 9.2-6.1 -1.4-3.4-2.6-7-4-10.4 -3 2.3-5.9 4.5-8.9 6.8 -1.3-3.2-2.8-6.2-4.8-8.9 2.9-2.5 5.7-5 8.6-7.5 -2.1-2.9-4.9-5.3-8.5-7.1 2.7-2.7 5.3-5.3 8-8 3.9 1.9 6.8 4.6 9.1 7.6 2.9-2.5 5.7-5 8.6-7.5 -2.4-3.3-5.5-6.1-9.7-8.1l-3.2 0c-2.7 2.7-5.3 5.3-8 8 -2.7 2.7-5.3 5.3-8 8 -2.7 2.7-5.3 5.3-8 8 3.4 1.7 5.9 4 7.9 6.6 2 2.7 3.5 5.7 4.8 8.9 1.3 3.2 2.4 6.5 3.7 9.7 1.3 3.2 2.8 6.2 4.8 8.9s4.5 5 7.9 6.6l3.2 0c3.4-1.6 6.8-3.3 10.1-4.9C76.1 77.5 73.4 75 71.2 72.1z"/><path d="M65.6 35.1c-2.9 2.5-5.7 5-8.6 7.5 2.1 2.9 3.7 6.2 5.1 9.6 3-2.3 6-4.5 8.9-6.8C69.6 41.7 67.9 38.2 65.6 35.1z"/><path d="M1.4 72.7c1 1 2 1.6 2.3 1.3l55.8-55.8c0.3-0.3-0.3-1.3-1.3-2.3 -1-1-2-1.6-2.3-1.3L0.1 70.4C-0.2 70.6 0.4 71.7 1.4 72.7z"/></g><g class="a"><path d="M95.9 40.1h-3.9c-1.2-6.5-3.7-11.9-8.2-11.9H9C2.3 28.3 0 40 0 50s2.3 21.7 9 21.7h74.9c4.5 0 7-5.3 8.2-11.9h3.9c3 0 4.1-5.3 4.1-9.9C100 45.4 98.9 40.1 95.9 40.1zM4.4 39.4c0.7-3.2 1.7-5.7 2.9-6.9h0 0.3H85.5h0c1.2 1.2 2.2 3.7 2.9 6.9H4.4zM92.6 45.2c-0.1-1.1-0.2-2.1-0.3-3.1h4.4 0c0.5 0.6 1 1.7 1.3 3.1H92.6z"/></g><g class="a"><path d="M98.9 73.3c0.6 0 1.1-0.5 1.1-1.1v-4.2c0-0.6-0.5-1.1-1.1-1.1H28.4c-0.7 1.6-2.3 2.6-4.1 2.6 -1.8 0-3.4-1.1-4.1-2.6h-3.6l-0.6 0.6c-3.5 3.5-5.4 8.1-5.4 13.1 0 4.9 1.9 9.6 5.4 13.1l0.6 0.6h3.5c0.7-1.6 2.3-2.8 4.2-2.8 1.9 0 3.5 1.2 4.2 2.8h70.5c0.6 0 1.1-0.5 1.1-1.1v-4.2c0-0.6-0.5-1.1-1.1-1.1h-4.3c-1.3-2.2-2-4.7-2-7.4 0-2.6 0.7-5.2 2-7.4h4.3V73.3zM23.5 88h-4.1c-1.6-2.1-2.5-4.7-2.5-7.4 0-2.7 0.9-5.3 2.5-7.4h4.1 66.3c-0.5 1.1-0.9 2.3-1.1 3.5H61.4c-0.9 0-1.6 0.7-1.6 1.6s0.7 1.6 1.6 1.6h26.9c0 0.2 0 0.5 0 0.7 0 2.6 0.5 5.1 1.5 7.4h-66.3V88z"/><path d="M98.9 12c0.6 0 1.1-0.5 1.1-1.1V6.7c0-0.6-0.5-1.1-1.1-1.1H28.4c-0.7 1.6-2.3 2.6-4.1 2.6 -1.8 0-3.4-1.1-4.1-2.6h-3.6L16.1 6.3c-3.5 3.5-5.4 8.1-5.4 13.1 0 4.9 1.9 9.6 5.4 13.1l0.6 0.6h3.5c0.7-1.6 2.3-2.8 4.2-2.8 1.9 0 3.5 1.2 4.2 2.8h70.5c0.6 0 1.1-0.5 1.1-1.1v-4.2c0-0.6-0.5-1.1-1.1-1.1h-4.3c-1.3-2.2-2-4.7-2-7.4 0-2.6 0.7-5.2 2-7.4H98.9zM23.5 26.7h-4.1c-1.6-2.1-2.5-4.7-2.5-7.4 0-2.7 0.9-5.3 2.5-7.4h4.1 66.3c-0.5 1.1-0.9 2.3-1.1 3.5H61.4c-0.9 0-1.6 0.7-1.6 1.6s0.7 1.6 1.6 1.6h26.9c0 0.2 0 0.5 0 0.7 0 2.6 0.5 5.1 1.5 7.4L23.5 26.7 23.5 26.7z"/><path d="M84 57.4c-1.3-2.2-2-4.7-2-7.4 0-2.6 0.7-5.2 2-7.4h4.3c0.6 0 1.1-0.5 1.1-1.1v-4.2c0-0.6-0.5-1.1-1.1-1.1H17.8c-0.7 1.6-2.3 2.8-4.2 2.8 -1.9 0-3.5-1.2-4.2-2.8H6l-0.6 0.6C1.9 40.4 0 45.1 0 50c0 4.9 1.9 9.6 5.4 13.1l0.6 0.6h3.6c0.7-1.6 2.3-2.6 4.1-2.6 1.8 0 3.4 1.1 4.1 2.6h70.5c0.6 0 1.1-0.5 1.1-1.1v-4.2c0-0.6-0.5-1.1-1.1-1.1h-4.3V57.4zM79.2 42.6c-1 2.3-1.5 4.8-1.5 7.4 0 0.2 0 0.5 0 0.7H50.8c-0.9 0-1.6 0.7-1.6 1.6 0 0.9 0.7 1.6 1.6 1.6h27.3c0.3 1.2 0.6 2.4 1.1 3.5H12.9 8.8c-1.6-2.1-2.5-4.7-2.5-7.4s0.9-5.3 2.5-7.4h4.1L79.2 42.6 79.2 42.6z"/></g><path d="M84.9 43.8c-1.3-2-3.2-3.3-5.5-3.8 -0.6-0.1-1.2-0.2-1.8-0.2 -1.3 0-2.6 0.3-3.8 0.9 0.2-1.9-0.3-3.9-1.4-5.5 -1.3-2-3.2-3.3-5.5-3.8 -0.6-0.1-1.2-0.2-1.8-0.2 -1.2 0-2.3 0.2-3.3 0.7l4.5-21.2c0.5-2.3 0-4.6-1.2-6.6S61.7 0.7 59.4 0.2c-2.3-0.5-4.6 0-6.6 1.2 -2 1.3-3.3 3.2-3.8 5.5l-9 42.2L31.1 7c-0.5-2.3-1.8-4.3-3.8-5.5 -2-1.3-4.3-1.7-6.6-1.2 -2.3 0.5-4.3 1.8-5.5 3.8 -1.3 2-1.7 4.3-1.2 6.6l9.7 45.8 -0.2 3.6c-2.8 1.3-4.8 4-5.2 7.1 0 0 0 0.1 0 0.1 0 0.3 0 0.5 0 0.8 0 0.1 0 0.2 0 0.3 0 0 0 0.1 0 0.1 0 0.3 0.1 0.6 0.1 0.9 0 0 0 0 0 0.1 0.4 2.5 1.5 6.8 2.1 9.3 1.5 5.6 3.2 11.5 3.8 13.4 1.4 4.4 6.1 7.9 10.8 7.9h31.2c4.6 0 9.6-3.3 11.3-7.5l2.2-5.2c1.6-3.7 2.8-10 2.8-14v-6.1l3.6-16.7C86.6 48.1 86.2 45.8 84.9 43.8zM66 35c2.7 0.6 4.5 3.3 3.9 6l-4.2 19.7c-1.4-0.9-3-1.4-4.8-1.4h-5.2l4.3-20.4c0.5-2.3 2.6-4 4.9-4C65.3 34.9 65.7 34.9 66 35zM17.5 9.8c-0.3-1.3 0-2.7 0.7-3.8s1.9-1.9 3.2-2.2c1.3-0.3 2.7 0 3.8 0.7 1.1 0.7 1.9 1.9 2.2 3.2l10 46.8c0.2 0.9 0.9 1.5 1.8 1.5h1.7c0.9 0 1.6-0.6 1.8-1.5l10-46.8c0.6-2.7 3.3-4.5 6-3.9 2.7 0.6 4.5 3.3 3.9 6l-5.7 26.7c-0.2 0.5-0.4 1-0.5 1.5l-4.5 21.2H27.2l0.2-2.9c0-0.2 0-0.3 0-0.5L17.5 9.8zM76.3 85.8l-2.2 5.2c-1.2 2.8-4.8 5.2-7.9 5.2H35c-3 0-6.3-2.4-7.2-5.3 -1.4-4.8-3.4-11.8-4.7-16.8 -0.7-2.8-1.2-5.3-1.2-6.1 0-2.6 2.4-5 5-5h34c2.8 0 5 2.3 5 5 0 2.8-2.3 5-5 5H40.8c-0.4 0-0.7 0.1-1 0.3l-5.2 3.5c-0.9 0.6-1.1 1.7-0.5 2.6 0.6 0.9 1.7 1.1 2.6 0.5l4.7-3.1h19.6c2.9 0 5.4-1.4 7.1-3.6 1.1 0.9 2.4 1.6 3.9 1.9 0.6 0.1 1.2 0.2 1.8 0.2 1.9 0 3.7-0.6 5.1-1.7C78.7 77.3 77.6 82.7 76.3 85.8zM82.5 49.6l-3.8 18c-0.5 2.3-2.6 4-4.9 4 -0.3 0-0.7 0-1-0.1 -1.3-0.3-2.3-1-3.1-2 0.1-0.5 0.1-1 0.1-1.5 0-1.3-0.3-2.4-0.7-3.5l3.6-17c0.5-2.3 2.6-4 4.9-4 0.3 0 0.7 0 1 0.1C81.3 44.2 83.1 46.9 82.5 49.6z"/><g class="a"><path d="M90.8 40H100v-8.8h-9.2c-0.5-2.1-1.3-4.1-2.4-5.8l6.5-6.5 -6.2-6.2 -6.6 6.6c-1.8-1.1-3.7-1.9-5.8-2.4V7.5h-8.8v9.3c-2.1 0.5-4.1 1.3-5.8 2.4l-6.5-6.5 -6.2 6.2 6.5 6.5c-1.1 1.8-1.9 3.7-2.4 5.8h-9.2v8.8h9.2c0.5 2.1 1.3 4.1 2.4 5.8l-6.5 6.5 6.2 6.2 6.5-6.5c1.8 1.1 3.8 1.9 5.9 2.4v9.2h8.8v-9.2c2.1-0.5 4.1-1.3 5.9-2.4l6.5 6.5 6.2-6.2 -6.5-6.5C89.5 44.1 90.3 42.1 90.8 40zM71.9 44.5c-4.9 0-8.8-4-8.8-8.8 0-4.9 4-8.8 8.8-8.8 4.9 0 8.8 4 8.8 8.8C80.7 40.5 76.7 44.5 71.9 44.5z"/><path d="M47.1 68.8h9.2V60h-9.2c-0.5-2.1-1.3-4.1-2.4-5.8l6.5-6.5 -6.2-6.2 -6.6 6.6c-1.8-1.1-3.7-1.9-5.8-2.4v-9.3h-8.8v9.3c-2.1 0.5-4.1 1.3-5.8 2.4l-6.5-6.5 -6.2 6.2 6.5 6.5c-1.1 1.8-1.9 3.7-2.4 5.8H0v8.8h9.2c0.5 2.1 1.3 4.1 2.4 5.8l-6.5 6.5 6.2 6.2 6.5-6.5c1.8 1.1 3.8 1.9 5.9 2.4v9.2h8.8v-9.2c2.1-0.5 4.1-1.3 5.9-2.4l6.5 6.5 6.2-6.2 -6.5-6.5C45.8 72.9 46.6 70.9 47.1 68.8zM28.1 73.2c-4.9 0-8.8-4-8.8-8.8 0-4.9 4-8.8 8.8-8.8 4.9 0 8.8 4 8.8 8.8C37 69.3 33 73.2 28.1 73.2z"/></g><g class="a"><polygon points="57.4 45.7 16 87.1 13.1 91.9 14.4 93.3 19.3 90.4 60.7 49 "/><path d="M97.5 8.8c-3.1-3.1-8.1-3.3-11.2-0.2L62.1 32.8c-0.3 0.3-0.3 0.7 0 1 0.8 0.8 0.8 2.2 0 3 -0.8 0.8-2.2 0.8-3 0 -0.3-0.3-0.7-0.3-1 0l-2.8 2.8c-0.2 0.2-0.3 0.6-0.1 0.9l10.7 10.7c0.3 0.2 0.6 0.1 0.9-0.1l2.8-2.8c0.3-0.3 0.3-0.7 0-1 -0.8-0.8-0.8-2.2 0-3 0.8-0.8 2.2-0.8 3 0 0.3 0.3 0.7 0.3 1 0l24.2-24.2C100.9 16.9 100.7 12 97.5 8.8z"/><path d="M86.8 80.4L58.4 54.1l-9.9 9.9 27.2 27.2c3 3.1 7.8 3.1 10.9 0.1C89.7 88.3 89.8 83.4 86.8 80.4zM84 88.7c-1.6 1.7-4.1 1.4-5.8-0.1 -1.4-1.4-1.4-4.1 0-5.6 1.7-1.6 4.2-1.6 5.8 0C85.6 84.5 85.6 87.3 84 88.7z"/><path d="M42.4 57.9l9.7-9.7L33.3 30.8c-2.8-3-3.5-4.2-2.8-7.7 0.8-3.8 0.2-10.9-6.4-14.7C16.6 4.1 9 8 9 8L8.4 9c0 0 6.7 4.4 7.6 4.9 1 0.6 3.8 3.8 0.4 9 -3.4 5.2-7.1 3.5-8.2 2.6 -0.8-0.5-7.6-4.8-7.6-4.8l-0.6 1c0 0-0.5 9 7 13.8 3.5 2.3 7.2 2.3 9.9 1.3 2.6-0.8 4.6 0.1 7.8 3.2L42.4 57.9z"/></g><g class="a"><polygon points="28.8 57.5 30.3 56.6 43.5 49 43.5 49 68.3 34.6 68.3 22.4 7.5 57.4 82.2 100 92.5 94.1 73.4 83.1 "/><polygon points="70.4 35.9 70.4 64.3 81 70.4 81 0 6.5 43 6.5 55.6 70.4 18.7 "/><polygon points="83.1 74 70.4 66.8 70.4 66.8 68.2 65.5 43.5 51.4 33 57.5 93.5 92.3 93.5 6 83.1 0 "/></g><g class="a"><path d="M86.2 14.8L71.4 0h-57.6v94.8c0 2.9 3.7 5.2 8.6 5.2 4.9 0 8.6-2.2 8.6-5.2l0 0V19.7l10.3 10.3v64.8l0 0c0 2.9 3.7 5.2 8.6 5.2 4.9 0 8.6-2.2 8.6-5.2V13.8H27.6v76.8c-1.4-0.6-3.2-1-5.2-1 -2 0-3.7 0.4-5.2 1V3.4h51.7v91.4c0 2.9 3.7 5.2 8.6 5.2 4.9 0 8.6-2.2 8.6-5.2l0 0V14.8zM55.2 90.6c-1.4-0.6-3.2-1-5.2-1 -2 0-3.7 0.4-5.2 1V31h10.3V90.6zM50 96.6c-3.3 0-5.2-1.3-5.2-1.7s1.8-1.7 5.2-1.7 5.2 1.3 5.2 1.7S53.3 96.6 50 96.6zM55.2 27.6H43.8L33.5 17.2h21.7V27.6zM22.4 93.1c3.3 0 5.2 1.3 5.2 1.7s-1.8 1.7-5.2 1.7 -5.2-1.3-5.2-1.7S19.1 93.1 22.4 93.1zM82.8 16.2v74.4c-1.4-0.6-3.2-1-5.2-1s-3.7 0.4-5.2 1V5.9L82.8 16.2zM77.6 96.6c-3.3 0-5.2-1.3-5.2-1.7s1.8-1.7 5.2-1.7c3.3 0 5.2 1.3 5.2 1.7S80.9 96.6 77.6 96.6z"/></g><g class="a"><path d="M79.4 26V1.9h0L78.3 0h-2.2l-1.1 1.9 0 0v1.9c-16.7 1.3-33.4 1.3-50.1 0V1.9l0 0L23.9 0h-2.2l-1.1 1.9h0v24.1h-6.1v3.4h6.1V44.3L46.9 70.6l-9.8 9.8h-9.9v3.4h6.5L21.2 96.4v0l-0.6 2.1L22.2 100l2.1-0.6v0l15.6-15.6h20.3l15.6 15.6v0L77.9 100l1.5-1.5 -0.6-2.1v0L66.3 83.8h6.5v-3.4h-9.9l-9.8-9.8L79.4 44.3V29.3h6.1v-3.4H79.4zM75 26v3.3 10.6c-16.3 5.3-33.8 5.3-50.1 0v-10.6V26C41.6 27.3 58.4 27.3 75 26zM56.8 80.5H43.2L50 73.7 56.8 80.5zM50 67.5l-6.6-6.6h13.3L50 67.5zM41.4 59L27.7 45.3c14.6 4.2 30 4.2 44.6 0L58.6 59H41.4z"/></g><g class="a"><path d="M97.8 84.1L71.2 57.5c3.7-5.8 5.9-12.7 5.9-20.1C77.1 16.8 60.3 0 39.7 0 19 0 2.2 16.8 2.2 37.4c0 20.6 16.8 37.4 37.4 37.4 5 0 9.8-1 14.2-2.8L81.9 100 97.8 84.1zM19.1 37.4c0-11.3 9.2-20.6 20.6-20.6s20.6 9.2 20.6 20.6c0 11.4-9.2 20.6-20.6 20.6S19.1 48.8 19.1 37.4z"/></g><g class="a"><path d="M96.8 44.7L55.3 3.2c-1.4-1.4-3.3-2.2-5.3-2.2 -2 0-3.9 0.8-5.3 2.2L3.2 44.7C1.8 46.1 1 48 1 50c0 2 0.8 3.9 2.2 5.3L44.7 96.8c1.4 1.4 3.3 2.2 5.3 2.2 2 0 3.9-0.8 5.3-2.2L96.8 55.3C99.7 52.4 99.7 47.6 96.8 44.7zM37.7 71.2c-0.6 0.6-1.1 1.1-1.6 1.6l-7.2-7.2c0.6-0.5 1.1-1.1 1.7-1.7 5.1-5 11.3-11 13.5-23.1 -0.5 0.1-1 0.3-1.5 0.4l-1.9 0.7c-4.1 1.4-5.4-0.3-3-3.9l7.9-11.4 0 0 4.4-6.4 4.4 6.5 7.9 11.4c2.4 3.5 1.1 5.3-3 3.9l-1.9-0.7c-0.5-0.2-1-0.3-1.5-0.4 2.2 12 8.3 18.1 13.5 23.1 0.6 0.6 1.1 1.1 1.7 1.7l-7.2 7.2c-0.5-0.5-1-1-1.6-1.6 -3.8-3.7-8.6-8.4-12.2-15.7C46.4 62.8 41.5 67.5 37.7 71.2z"/></g><g class="a"><path d="M79.8 79.3h10.2v-4.4L100 84.8l-9.9 9.9v-4.4H65.9C71.3 87.6 76 83.8 79.8 79.3z"/><path d="M41.2 21c-14.2 2-25.2 14.2-25.2 29 0 10.1 5.2 19 13 24.3H13.2c-5.1-6.8-8.2-15.2-8.2-24.3 0-20.6 15.6-37.7 35.6-40l-5.2 5.2L41.2 21z"/><path d="M5.5 84.8l-5.5-5.5h45.3c16.1 0 29.3-13.1 29.3-29.3 0-14.5-10.5-26.5-24.3-28.9v4l-9.9-9.9 10-9.9V10c19.9 2.5 35.4 19.5 35.4 40 0 22.2-18.1 40.3-40.3 40.3H0L5.5 84.8z"/></g><g class="a"><path d="M44.4 57.3l9.3 9.3v10.3h10.3l3 3v10.3h9.9V100h23.2V87.1L57.3 44.4c6-11.5 4.2-25.9-5.5-35.5 -11.9-11.9-31.1-11.9-43 0 -11.9 11.9-11.9 31.1 0 43C18.5 61.5 33 63.3 44.4 57.3zM18.1 18.1c3.8-3.8 9.9-3.8 13.6 0 3.8 3.8 3.8 9.9 0 13.6 -3.8 3.8-9.8 3.8-13.6 0C14.4 28 14.4 21.9 18.1 18.1z"/></g><g class="a"><path d="M50 23.3c-11.7 0-21.2 9.5-21.2 21.2 0 2.9 0.6 5.7 1.7 8.2l0 0 9.6 27.9h19.6l9.7-27.1c1.3-2.7 2-5.7 2-8.9C71.2 32.8 61.7 23.3 50 23.3z"/><rect x="47.8" width="4.4" height="17.3"/><rect x="23.3" y="11.3" transform="matrix(0.4999 0.8661 -0.8661 0.4999 27.6569 -20.886)" width="17.3" height="4.4"/><rect x="10" y="24.5" transform="matrix(-0.8659 -0.5002 0.5002 -0.8659 21.4697 59.2448)" width="17.3" height="4.4"/><polygon points="87.7 20.5 72.7 29.2 74.9 33 89.9 24.3 "/><rect x="65.9" y="4.8" transform="matrix(0.8663 0.4995 -0.4995 0.8663 15.8505 -32.2056)" width="4.4" height="17.3"/><rect x="40.7" y="83.2" width="17.3" height="3.8"/><rect x="40.7" y="89.7" width="17.3" height="3.8"/><rect x="43.6" y="96.2" width="11.5" height="3.8"/></g><g class="a"><polygon points="37.4 23.5 19.4 23.5 37.4 5.5 "/><path d="M41.9 1v27H14.8V99h70.3V1H41.9zM73.7 85.1H26.3v-5.8H73.7V85.1zM73.7 68.8H26.3v-5.8H73.7V68.8zM73.7 52H26.3V46.2H73.7V52z"/></g><g class="a"><path d="M80.4 34.5c-15.3-9.2-25.8-11.5-30.1-9.8 -1.8 0.7-3.6 3-5.4 6 -1.9 3.2-3.3 8-2.9 10.1 0.3 1.2 3.6 9.1 22.3 19.5 12.2 6.8 21.9 8.5 23.6 8 1.7-0.6 4.1-1.8 7.3-6.3C98.1 57.9 99 53.2 99 51.4 99 49.6 92.8 42 80.4 34.5zM94.8 52.5c-1.7 3.1-14.1-1.5-21.8-5.7 -7.6-4.2-23.9-15.2-20.1-19.3 2.7-2.9 13.9 0.8 26.2 8.4C91.4 43.6 96.5 49.5 94.8 52.5z"/><path d="M48.7 53.5c-2.6 1-9.3 2.2-17.5 2.2 -9.2 0-24.5-2.2-24.5-8.4 0-7.2 22.6-10.2 32.6-9.2 0.1-0.7 0.3-1.8 0.3-1.8s-1.6-0.2-4.7-0.2c-22.7 0-30.2 6.4-31.8 8.8 -1.6 2.3-2.1 7.4-2.1 10.2 0 2.8-0.6 8.5 3.9 13.5 5.1 5.6 16.6 7.3 26 7.3 9.4 0 16.2-0.8 25.9-5.3 0.6-1.3 0.6-2.7 0.6-3.2C57.5 62 51.7 54.6 48.7 53.5z"/></g><g class="a"><path d="M90.5 35.7h-2.9L77.4 18.6c-0.6-1.1-2.2-2-3.5-2H26.1c-1.3 0-2.8 0.9-3.5 2l-10.2 17.1H9.5C4.3 35.7 0 40 0 45.2v2.7 23.8h9.5v11.6h14.3V71.7h52.4v11.6h14.3V71.7H100V47.9v-2.7C100 40 95.7 35.7 90.5 35.7zM26.8 22h46.4l9.7 16.1c-4.5 1.4-14.4 3.4-32.6 3.4 -18.3 0-28.5-2.1-33.1-3.5L26.8 22zM16.7 59.5c-3.9 0-7.1-3.2-7.1-7.1 0-3.9 3.2-7.1 7.1-7.1 3.9 0 7.1 3.2 7.1 7.1C23.8 56.3 20.6 59.5 16.7 59.5zM66.7 60.6H33.3c-0.6 0-1.1-0.5-1.1-1.1 0-0.6 0.5-1.1 1.1-1.1h33.3c0.6 0 1.1 0.5 1.1 1.1C67.7 60.1 67.2 60.6 66.7 60.6zM66.7 55.8H33.3c-0.6 0-1.1-0.5-1.1-1.1 0-0.6 0.5-1.1 1.1-1.1h33.3c0.6 0 1.1 0.5 1.1 1.1C67.7 55.3 67.2 55.8 66.7 55.8zM83.3 59.5c-4 0-7.1-3.2-7.1-7.1 0-3.9 3.2-7.1 7.1-7.1 3.9 0 7.1 3.2 7.1 7.1C90.5 56.3 87.3 59.5 83.3 59.5z"/></g><g class="a"><path d="M77.5 70V42c-1.7 0.1-3.4 0.3-5.3 0.4v29.6C74.1 71.3 75.9 70.7 77.5 70z"/><path d="M25.6 42.2V71.1c6.6 2.3 15.2 3.8 24.6 3.8 2.2 0 4.4-0.1 6.5-0.2V42.9c-2.1 0-4.3 0.1-6.5 0.1C40.9 43 32.4 42.7 25.6 42.2z"/><path d="M17.9 38.7c7.4 1 19.5 1.5 32.2 1.5 12.6 0 24.5-0.6 32-1.5 0.5-4.6 2.7-7.6 5.5-7.7C83.8 13.8 68.4 1 50.1 1 31.8 1 16.4 13.8 12.6 31 15.3 31.3 17.4 34.2 17.9 38.7zM66.2 10c1.2-1.3 4.5 0 7.3 2.7 2.8 2.7 4.1 6 2.9 7.2 -1.2 1.3-4.5 0-7.3-2.7C66.3 14.4 65 11.2 66.2 10z"/><path d="M75 73.9c-5.2 1.8-11.5 3-18.4 3.5 -0.3 0-0.7 0.1-1 0.1 -0.2 0-0.5 0-0.7 0 -0.7 0-1.4 0.1-2.1 0.1 0 0-0.1 0-0.1 0 -0.9 0-1.8 0-2.6 0 -0.9 0-1.8 0-2.6 0 0 0-0.1 0-0.1 0 -0.7 0-1.4-0.1-2.1-0.1 -0.2 0-0.5 0-0.7 0 -0.4 0-0.7-0.1-1-0.1 -6.9-0.5-13.2-1.8-18.4-3.5 -4-1.4-7.4-3.1-9.9-5.1l-0.3-0.1c2.5 10.1 9.6 18.5 16.1 24 2.4 2.3 4.9 4.2 7.5 5.2 0.2 0.1 0.4 0.2 0.5 0.3 1.6 0.6 6.4 0.8 11.1 0.8 4.7 0 9.5-0.3 11.1-0.8 0.2-0.1 0.4-0.2 0.5-0.3 2.6-1.1 5.2-2.9 7.5-5.2 6.5-5.5 13.6-13.9 16.1-24l-0.3 0.1C82.4 70.8 79 72.5 75 73.9zM46.3 91.6c0 0.5-0.4 0.9-0.9 0.9s-0.9-0.4-0.9-0.9v-4.8c0-0.5 0.4-0.9 0.9-0.9s0.9 0.4 0.9 0.9V91.6zM50.9 93c0 0.5-0.4 0.9-0.9 0.9 -0.5 0-0.9-0.4-0.9-0.9v-6.6c0-0.5 0.4-0.9 0.9-0.9 0.5 0 0.9 0.4 0.9 0.9V93zM55.5 91.6c0 0.5-0.4 0.9-0.9 0.9 -0.5 0-0.9-0.4-0.9-0.9v-4.8c0-0.5 0.4-0.9 0.9-0.9 0.5 0 0.9 0.4 0.9 0.9V91.6z"/><path d="M87.9 33.7c-1.7 0-3.1 3.3-3.1 7.4 0 0 0 0 0 0 -0.7 0.1-1.6 0.2-2.5 0.3v26c3.6-2.4 5.7-5.3 5.7-8.3 0 0 3-15.3 3-18C91 37 89.6 33.7 87.9 33.7zM88.1 41.5c-0.3 0-0.6-0.8-0.6-1.7s0.3-1.7 0.6-1.7c0.3 0 0.6 0.8 0.6 1.7S88.4 41.5 88.1 41.5z"/><path d="M20.4 68.9V41.8c-1.9-0.2-3.6-0.4-5.1-0.6 0 0 0 0 0 0 0-4.1-1.4-7.4-3.1-7.4 -1.7 0-3.1 3.3-3.1 7.4 0 3.1 3.2 18 3.2 18C12.2 62.8 15.3 66.2 20.4 68.9zM11.9 41.5c-0.3 0-0.6-0.8-0.6-1.7s0.3-1.7 0.6-1.7 0.6 0.8 0.6 1.7S12.2 41.5 11.9 41.5z"/></g><g class="a"><path d="M70 0H30c-3.7 0-6.7 3-6.7 6.7v86.7c0 3.7 3 6.7 6.7 6.7h40c3.7 0 6.7-3 6.7-6.7V6.7C76.7 3 73.7 0 70 0zM43.2 6h13.5c1.2 0 2.2 1 2.2 2.2 0 1.2-1 2.2-2.2 2.2H43.2c-1.2 0-2.2-1-2.2-2.2C41 7 42 6 43.2 6zM50 93.7c-3 0-5.4-2.4-5.4-5.4 0-3 2.4-5.4 5.4-5.4s5.4 2.4 5.4 5.4C55.4 91.3 53 93.7 50 93.7zM69.7 78.3H30.3v-62.5h39.3v62.5H69.7z"/></g><g class="a"><path d="M72.4 3.1c-1.4-1.2-3.2-1.7-4.7-2.1C64.7 0.3 53.2 0 50.2 0h-0.3c-3.1 0-14.6 0.3-17.5 1.1 -1.5 0.4-3.3 0.9-4.7 2.1 -1.7 1.4-2.6 3.5-2.6 6.2v81.6c0 5.5 4.4 7.1 6.3 7.5C33.4 98.9 38.3 100 49.8 100H50.2c11.5 0 16.4-1.1 18.5-1.6 1.9-0.4 6.3-2 6.3-7.5V9.3C75 6.6 74.1 4.6 72.4 3.1zM66.5 5.6c1.3 0 2.4 1.1 2.4 2.4 0 1.3-1.1 2.4-2.4 2.4s-2.4-1.1-2.4-2.4C64.1 6.7 65.2 5.6 66.5 5.6zM40.7 7h17.7c0.6 0 1 0.5 1 1s-0.5 1-1 1H40.7c-0.6 0-1-0.5-1-1C39.7 7.5 40.2 7 40.7 7zM53.9 94.3c-1 0.2-3.1 0.3-4 0.3 -0.1 0-0.2 0-0.3 0s-0.2 0-0.3 0c-0.9 0-3 0-4-0.3 -1.3-0.3-1.8-1.8-1.8-2.3 0-0.4 0-1.3 1.4-1.3h4.4 0.3 4.4c1.4 0 1.4 0.9 1.4 1.3C55.7 92.5 55.3 94 53.9 94.3zM68.6 86.1h-37.5V14.1H68.6v72.1H68.6z"/></g><g class="a"><path d="M68 28.9v22.1l-22.1-22v25.7h-7V0h-9.2v54.6h-7V0h-9.2v54.6H6.3V100h87.4V54.6h0L68 28.9zM89.6 66H75.9v-7.2h13.6V66zM54.1 70.1h13.6v7.2H54.1V70.1zM45.9 77.3H32.3v-7.2h13.6V77.3zM54.1 66v-7.2h13.6v7.2H54.1zM45.9 58.7v7.2H32.3v-7.2H45.9zM24 58.7v7.2H10.4v-7.2H24zM10.4 70.1h13.6v7.2H10.4V70.1zM75.9 77.3v-7.2h13.6v7.2H75.9z"/></g><g class="a"><path d="M13 48.1V100h74.1V48.1H13zM53.7 76.8v12.1h-7.4V76.8c-2.2-1.3-3.7-3.6-3.7-6.4 0-4.1 3.3-7.4 7.4-7.4 4.1 0 7.4 3.3 7.4 7.4C57.4 73.1 55.9 75.5 53.7 76.8z"/><path d="M35.2 25.9c0-3.1 0-14.8 14.8-14.8 14.8 0 14.8 11.8 14.8 14.8v11.1h11.1V25.9c0 0 0-25.9-25.9-25.9C24.1 0 24.1 25.9 24.1 25.9V37h11.1V25.9z"/></g></svg>
