<svg xmlns="http://www.w3.org/2000/svg" viewBox="0 0 606 239"><g class="st0"><path d="m77.9 118.2c0 27.6-17.3 46.1-43.2 46.1h-26.7v-92.4h26.7c25.8 0 43.2 18.5 43.2 46.3zm-13.8 0c0-21.2-12.2-35.3-30.5-35.3h-12.4v70.4h12.5c18.2 0 30.4-14.1 30.4-35.1z"/><path d="M155.2 153.3v11H95V71.9h59.4l-1.9 11h-44.3v29h41.6v11h-41.6v30.5H155.2z"/><path d="m161.4 71.9h14.2l26 76 26-76h14.2l-33.9 92.4h-12.4l-34.1-92.4z"/><path d="m340.3 153.3l-1.9 11h-64.8v-8.4l47.2-73h-46.6v-11h63.6v8.4l-47.2 73h49.7z"/><path d="m348 118.1c0-28.5 16.3-47.4 40.8-47.4s40.7 19 40.7 47.4-16.2 47.4-40.7 47.4c-24.4 0-40.8-19-40.8-47.4zm67.7 0c0-21.8-10.7-36.4-26.8-36.4-16.2 0-27 14.6-27 36.4s10.7 36.4 27 36.4c16.1 0 26.8-14.6 26.8-36.4z"/><path d="m446.6 71.9h9.1l46.8 67.6-0.2-67.6h13.1v92.4h-9l-46.9-67.6 0.2 67.6h-13.1v-92.4z"/><path d="m597.6 153.3v11h-60.3v-92.4h59.4l-1.9 11h-44.3v29h41.6v11h-41.6v30.5h47.1z"/></g></svg>
