<svg xmlns="http://www.w3.org/2000/svg" viewBox="0 0 100 100"><path d="M50 7C34.5 7 22 19.5 22 35 22 40.6 23.6 45.8 26.4 50.1L41.8 74.1C40.2 74.5 38.8 75.1 37.5 75.8 3 4. 2 3 7 7 1 6, 1 0 2 9. 8 3 9 2 8, 3 2, 1 0 3 2. 3 6 6 4 8, 3 2, 1 0 3 5. 3 6 2 1 8 0 0 3 2, 1 0 3 8. 3 5 7 8 8, 3 4. 2 3 7 7 1 6, 1 0 4 0. 8 8 5 0 8, 3 7. 5, 1 0 4 2. 6 1 2 1 8 9 5 2. 3 6 2 1 8- 9 5 2. 3 6 2 1 8 40.8 92 45.2 93 50 93 54.8 93 59.2 92 62.5 90.3 65.8 88.5 68 86 68 83 68 80 65.8 77.5 62.5 75.8 61.2 75.1 59.8 74.5 58.2 74.1L7 3. 5 6 2 5, 1 0 0 2. 4 8 7 1 8 0 0C7 6. 3 6 1 8 5 4, 9 9 8. 1 2 4 5 4, 7 8, 9 9 2. 9 3 2 6, 7 8, 9 8 7. 3 6 2 1 8 9 5 2. 3 6 2 1 8- 9 5 2. 3 6 2 1 8 78 19.5 65.5 7 50 7zM50 9C64.4 9 76 20.6 76 35 76 40.2 74.5 45 71.9 49L5 0, 1 0 3 5. 4 8 7 1 8 0 0 2 8. 1 2 5, 1 0 0 1. 3 9 3 4 3 9 5 2. 3 6 2 1 8- 9 5 2. 3 6 2 1 8C25.5 45 24 40.2 24 35 24 20.6 35.6 9 50 9zM50 24C43.9 24 39 28.9 39 35 3 9, 9 9 3. 4 2 5 3 8, 4 3. 9 3 6 7, 9 9 8. 3 6 2 1 8, 5 0, 9 9 8. 3 6 2 1 8 0 0 5 6. 0 6 3 3, 9 9 8. 3 6 2 1 8, 6 1, 9 9 3. 4 2 5 3 8, 6 1, 9 8 7. 3 6 2 1 8 9 5 2. 3 6 2 1 8- 9 5 2. 3 6 2 1 8 61 28.9 56.1 24 50 24zM50 26C55 26 59 30 59 35 59 40 55 44 50 44 4 5. 0 1 7 6, 9 9 6. 3 6 2 1 8, 4 1, 9 9 2. 3 4 4 5 8, 4 1, 9 8 7. 3 6 2 1 8 0 0 4 1, 9 8 2. 3 7 9 7 8, 4 5. 0 1 7 6, 9 7 8. 3 6 2 1 8, 5 0, 9 7 8. 3 6 2 1 8 9 5 2. 3 6 2 1 8- 9 5 2. 3 6 2 1 8zM43 75.9L49.2 85.5A1 1 0 0 0 50.8 85.5L57 75.9C5 8. 7 3 2 0 4 4, 7 6. 3 0 2 9 4 9, 6 0. 2 7 7 7 5, 7 6. 8 5 1 1 1 8, 6 1. 5 6 2 5, 7 7. 5 3 1 2 5 0 0 6 4. 4 5 3 0 0 6, 7 9. 0 6 1 5 5, 6 6, 8 1. 0 2 5 1, 6 6, 8 3 9 5 2. 3 6 2 1 8- 9 5 2. 3 6 2 1 8 66 85 64.5 86.9 61.6 88.5 58.7 90 54.6 91 50 91 45.4 91 41.3 90 38.4 88.5 35.5 86.9 34 85 34 83 34 81 35.5 79.1 38.4 77.5 3 9. 7 2 3 0 6 5, 7 6. 8 5 0 6 8 7, 4 1. 2 6 6 1 9 5, 7 6. 3 0 3 1 0 5, 4 2. 9 6 8 7 5, 7 5. 8 7 5 0 0z9 5 2. 3 6 2 1 8- 9 5 2. 3 6 2 1 8"/></svg>
