<svg xmlns="http://www.w3.org/2000/svg" viewBox="0 0 100 100"><path d="m32.3 45.4h11.6c0.8 0 1.5-0.7 1.5-1.5s-0.7-1.5-1.5-1.5h-11.6v-2.3h11.6c0.8 0 1.5-0.7 1.5-1.5s-0.7-1.5-1.5-1.5h-11.6v-2.3h11.6c0.8 0 1.5-0.7 1.5-1.5s-0.7-1.5-1.5-1.5h-11.6v-2.3h11.6c0.8 0 1.5-0.7 1.5-1.5s-0.7-1.5-1.5-1.5h-11.6v-1.2c0-8.2 6.7-15 15-15h1.4c8.2 0 15 6.7 15 15v1.2h-11.6c-0.8 0-1.5 0.7-1.5 1.5s0.7 1.5 1.5 1.5h11.6v2.3h-11.6c-0.8 0-1.5 0.7-1.5 1.5s0.7 1.5 1.5 1.5h11.6v2.3h-11.6c-0.8 0-1.5 0.7-1.5 1.5s0.7 1.5 1.5 1.5h11.6v2.3h-11.6c-0.8 0-1.5 0.7-1.5 1.5s0.7 1.5 1.5 1.5h11.6v1.2c0 8.2-6.7 15-15 15h-1.4c-8.2 0-15-6.7-15-15v-1.2zm39.4 1.4c-0.9 11.8-10.4 21.2-22.2 22v12.4l13.5 4.9v3.7h-30v-3.7l13.5-4.9v-12.5c-11.8-0.7-21.3-10.2-22.2-22-0.5-0.4-0.9-1.1-0.9-1.8 0-1.2 1-2.2 2.2-2.2s2.2 1 2.2 2.2c0 0.6-0.2 1.2-0.6 1.6 0.8 10.7 9.8 19.2 20.7 19.2s19.9-8.5 20.7-19.2c-0.4-0.4-0.6-1-0.6-1.6 0-1.2 1-2.2 2.2-2.2s2.2 1 2.2 2.2c0.2 0.8-0.2 1.4-0.7 1.9z"/></svg>
