<svg xmlns="http://www.w3.org/2000/svg" viewBox="0 0 100 100"><title>  Artboard</title><desc>  Created with Sketch.</desc><g fill="none"><g style="stroke-width:5;stroke:#fff"><path d="M87.7 10.8L12.7 10.8C8.6 10.8 5.2 14.2 5.2 18.3L5.2 67.1C5.2 71.2 8.6 74.6 12.7 74.6L65.3 74.6 80.2 89.5 80.2 74.6 87.7 74.6C91.8 74.6 95.2 71.2 95.2 67.1L95.2 18.3C95.2 14.2 91.8 10.8 87.7 10.8L87.7 10.8ZM35.6 46.5C33.5 46.5 31.8 44.8 31.8 42.7 31.8 40.6 33.5 39 35.6 39 37.6 39 39.3 40.7 39.3 42.7 39.3 44.8 37.6 46.5 35.6 46.5L35.6 46.5ZM50.2 46.5C48.1 46.5 46.5 44.8 46.5 42.7 46.5 40.6 48.1 39 50.2 39 52.3 39 54 40.7 54 42.7 54 44.8 52.3 46.5 50.2 46.5L50.2 46.5ZM65.2 46.5C63.1 46.5 61.5 44.8 61.5 42.7 61.5 40.6 63.1 39 65.2 39 67.3 39 68.9 40.7 68.9 42.7 68.9 44.8 67.3 46.5 65.2 46.5L65.2 46.5Z"/></g></g></svg>
