<svg xmlns="http://www.w3.org/2000/svg" viewBox="0 0 512 512"><path class="st0" d="M378.7 453.2l-98.4-83.5H95.1c-33.1 0-60.1-27-60.1-60.1V141.9c0-33.1 27-60.1 60.1-60.1h321.8c33.2 0 60.1 27 60.1 60.1v167.7c0 33.1-27 60.1-60.1 60.1h-39.6L378.7 453.2zM95.1 103.8c-21 0-38.1 17.1-38.1 38.1v167.7c0 21 17.1 38.1 38.1 38.1h193.8l69.6 62.4 -3.2-62.4h61.6c21 0 38.1-17.1 38.1-38.1V141.9c0-21-17.1-38.1-38.1-38.1H95.1z"/><circle class="st0" cx="153.3" cy="226.7" r="27.1"/><circle class="st0" cx="257.4" cy="226.7" r="27.1"/><circle class="st0" cx="361.6" cy="226.7" r="27.1"/></svg>
