<svg xmlns="http://www.w3.org/2000/svg" viewBox="0 0 512 512"><path class="st0" d="m372.9 252.3l-31.8-15.7 23.5-23.5c8.4 2.2 17 3.4 25.7 3.4 26.6 0 51.6-10.4 70.4-29.2 28.9-28.9 37.2-72 21.2-109.6l-5.1-11.9-62.8 62.8-22.9-12.5-12.5-23.1 62.8-62.8-11.9-5.1c-12.4-5.3-25.6-8-39.2-8-26.6 0-51.6 10.4-70.4 29.2-25.4 25.4-35 61.8-25.8 96.2l-50.3 50.3-139.3-139-14.8-24.2-62-8.5 10.6 60.2 24.1 14.5 139.3 139-64.3 64.3c-8.4-2.2-17-3.4-25.7-3.4-26.6 0-51.6 10.4-70.4 29.2-28.9 28.9-37.2 72-21.2 109.6l5.1 11.9 62.8-62.7 22.9 12.5 12.5 22.9-62.8 62.8 11.9 5.1c12.5 5.3 25.6 8 39.2 8 26.6 0 51.6-10.4 70.4-29.2 25.4-25.4 35-61.8 25.8-96.2l37.5-37.5 15.7 31.8 123.4 123.5c4.9 4.9 11.9 7.5 20 7.5 42.8 0 124.7-86.3 91.7-119.3l-123.3-123.3zm-298.9-169.6l-0.7-0.8-19.1-11.5-5-28.7 29.8 4.1 11.4 18.9 140.8 140.5-17.2 17.2-140-139.7zm114.1 282.1l1.7 5.1c9.6 29.6 2 61.6-20 83.5-15.5 15.5-36.1 24-58 24-6.6 0-13.2-0.8-19.5-2.3l52.9-52.9-21.3-39-39-21.3-52.9 53c-6.8-27.6 1.1-56.9 21.7-77.6 15.5-15.5 36.1-24 58-24 8.7 0 17.3 1.4 25.5 4l5.1 1.7 171.6-171.6-1.7-5.1c-9.6-29.6-2-61.6 20-83.6 15.5-15.5 36.1-24 58-24 6.6 0 13.2 0.8 19.5 2.3l-52.9 52.9 21.2 39 39 21.3 52.9-52.9c6.8 27.6-1.1 57-21.7 77.6-15.5 15.5-36.1 24-58 24-8.7 0-17.3-1.4-25.5-4l-5.1-1.7-171.5 171.6zm216.5 112.7c-3.5 0-6-0.8-7.6-2.4l-121.4-121.5-17.1-34.6 69.4-69.4 34.6 17.1 121.4 121.4c16.7 16.7-46.5 89.4-79.3 89.4z"/><rect class="st0" transform="matrix(0.7071 -0.7071 0.7071 0.7071 -150.82 378.06)" x="372.2" y="287.6" width="17.5" height="167"/></svg>
