<svg xmlns="http://www.w3.org/2000/svg" viewBox="0 0 100 100"><path d="m54.8 7c-0.2 0-0.4 0.1-0.5 0.3l-46 45C7.5 53 7 54.2 7 55.5c0 1.3 0.5 2.4 1.3 3.2l33 33C42 92.4 42.9 93 44 93c1.2 0 2-0.7 2.7-1.3l46-44C92.9 47.5 93 47.3 93 47L93 8C93 7.5 92.5 7 92 7L55 7c-0.1 0-0.1 0-0.2 0zM55.4 9 91 9 91 46.6 45.3 90.3C44.8 90.7 44.3 91 44 91 43.6 91 43.2 90.8 42.7 90.3l-33-33C9.3 56.9 9 56.2 9 55.5 9 54.7 9.3 54.1 9.7 53.7zM75 17c-4.4 0-8 3.6-8 8 0 4.4 3.6 8 8 8 4.4 0 8-3.6 8-8 0-4.4-3.6-8-8-8zm0 2c3.3 0 6 2.7 6 6 0 3.3-2.7 6-6 6-3.3 0-6-2.7-6-6 0-3.3 2.7-6 6-6z"/></svg>
