<svg xmlns="http://www.w3.org/2000/svg" viewBox="0 0 100 100"><path class="st0" d="m41.7 47.6c0.2 0.1 0.5 0.2 0.7 0.2 0.3 0 0.5-0.1 0.8-0.2l16.2-10.2c0.4-0.3 0.7-0.7 0.7-1.2s-0.3-1-0.7-1.2l-16.2-10.2c-0.5-0.3-1-0.3-1.5 0s-0.8 0.7-0.8 1.3v20.4c0 0.4 0.3 0.9 0.8 1.1zm2.2-19l12 7.5-12 7.5v-15z"/><path class="st0" d="M10 10v80h79.5V10H10zM86.6 12.9v48H12.9v-48H86.6zM12.9 87.1V63.8h73.7v23.3H12.9z"/><path class="st0" d="m79.2 74h-35.3v-2.9c0-0.8-0.7-1.5-1.5-1.5s-1.5 0.7-1.5 1.5v2.9h-5.9c-0.8 0-1.5 0.7-1.5 1.5s0.7 1.5 1.5 1.5h5.9v2.9c0 0.8 0.7 1.5 1.5 1.5s1.5-0.7 1.5-1.5v-2.9h35.4c0.8 0 1.5-0.7 1.5-1.5-0.1-0.9-0.7-1.5-1.6-1.5z"/><path class="st0" d="m20.3 69.6c-0.8 0-1.5 0.7-1.5 1.5v8.7c0 0.8 0.7 1.5 1.5 1.5s1.5-0.7 1.5-1.5v-8.7c0-0.8-0.7-1.5-1.5-1.5z"/><path class="st0" d="m26.2 69.6c-0.8 0-1.5 0.7-1.5 1.5v8.7c0 0.8 0.7 1.5 1.5 1.5s1.5-0.7 1.5-1.5v-8.7c0-0.8-0.7-1.5-1.5-1.5z"/></svg>
